:SAMPLES-PER-SECOND 30
:FULLY-SPECIFIED
:DEGREES
225
root  -54.8543 39.6956 -1.62224 122.665 82.9829 125.687
RightUpLeg  -0.728384 -10.6246 -9.52412
RightLeg  49.4477 -3.36705 -4.51243
RightFoot  -0.466926 -0.964859 10.439
RightToes  -4.65663e-010 0 -3.6325e-017
Spine  12.5113 1.28795 -0.336937
Spine1  12.9272 2.32959 -2.59165
HEad  12.7457 -3.93088 -1.73237
LeftShoulder1  8.21115 -12.9048 -43.5396
LeftArm  -12.6772 9.65541 -30.2206
LeftForeArm  34.0167 -13.8853 -4.00533
LeftHand  -0.244104 0.0205437 5.32207
RightShoulder  5.01332 8.52659 35.6976
RightArm  5.20056 -5.6077 36.9319
RightForeArm  -3.44232 19.3442 5.75114
RightHand  -2.71855 8.15509 -23.3157
LeftUpLeg  -14.21 14.056 -10.7831
LeftLeg  21.1893 4.8347 2.39868
LeftFoot  -5.51093 -0.223006 5.08072
LeftToes  -5.82109e-011 -4.83791e-012 -1.00937e-011
226
root  -53.7888 39.7349 -1.7097 116.156 82.6764 118.972
RightUpLeg  -7.98608 -8.42911 -9.77782
RightLeg  58.6153 -2.41547 -4.71782
RightFoot  7.24549 -0.9606 6.05039
RightToes  -4.65663e-010 0 -3.6325e-017
Spine  13.9291 1.36565 -1.7984
Spine1  12.6452 2.05482 -2.33147
HEad  11.7189 -3.12664 -2.45668
LeftShoulder1  8.19591 -12.8016 -43.7447
LeftArm  -12.3561 9.64553 -30.6671
LeftForeArm  34.4097 -13.7443 -4.0857
LeftHand  -0.244104 0.0205437 5.32207
RightShoulder  4.93739 8.30583 35.8311
RightArm  6.16468 -6.51646 38.5595
RightForeArm  -1.61897 17.4539 6.50219
RightHand  -2.59234 7.54608 -23.2748
LeftUpLeg  -12.4501 15.1892 -11.1386
LeftLeg  21.0523 4.35878 2.19369
LeftFoot  -6.94568 -0.143314 4.83675
LeftToes  -5.82109e-011 -4.83791e-012 -1.00937e-011
227
root  -52.7105 39.8792 -1.80555 116.676 82.706 119.244
RightUpLeg  -13.9873 -7.11767 -9.30296
RightLeg  62.9522 -1.504 -3.79282
RightFoot  8.58964 -0.633894 3.91495
RightToes  -4.65663e-010 0 -3.6325e-017
Spine  15.3498 1.05492 -2.38818
Spine1  12.3654 1.37955 -1.72273
HEad  10.6063 -2.20803 -3.07185
LeftShoulder1  8.19016 -12.688 -44.0347
LeftArm  -11.1153 9.553 -31.0878
LeftForeArm  34.7144 -14.8021 -4.11232
LeftHand  -0.244104 0.0205437 5.32207
RightShoulder  4.93063 8.16154 36.2777
RightArm  7.87994 -8.03397 39.4789
RightForeArm  -0.625747 17.3957 6.59364
RightHand  -2.65434 7.69064 -23.5524
LeftUpLeg  -10.3451 14.9534 -10.6735
LeftLeg  20.2178 4.37083 2.05301
LeftFoot  -8.36266 -0.0645493 4.36726
LeftToes  -5.82109e-011 -4.83791e-012 -1.00937e-011
228
root  -51.6177 40.0791 -1.88505 123.518 82.9267 125.823
RightUpLeg  -18.6794 -6.73059 -8.28997
RightLeg  62.6114 -1.19845 -3.08729
RightFoot  6.61228 -0.66327 4.49828
RightToes  -4.65663e-010 0 -3.6325e-017
Spine  16.8743 0.506297 -2.37974
Spine1  11.938 0.464682 -0.892965
HEad  9.48912 -1.59318 -3.24719
LeftShoulder1  8.17148 -12.641 -44.0635
LeftArm  -9.7392 9.1883 -31.7926
LeftForeArm  34.8304 -15.9533 -4.07278
LeftHand  -0.244104 0.0205437 5.32207
RightShoulder  5.03308 8.29503 36.6581
RightArm  9.46514 -10.4757 40.0223
RightForeArm  -0.507448 18.343 6.23879
RightHand  -2.907 8.60542 -24.0952
LeftUpLeg  -8.01917 13.6229 -9.4211
LeftLeg  19.0234 5.00134 1.70821
LeftFoot  -9.8164 0.016354 3.22327
LeftToes  -5.82109e-011 -4.83791e-012 -1.00937e-011
229
root  -50.5174 40.2235 -1.94233 130.371 83.071 132.391
RightUpLeg  -22.4703 -6.57826 -7.20083
RightLeg  58.7106 -1.55538 -3.2259
RightFoot  4.60993 -0.701597 5.21519
RightToes  -4.65663e-010 0 -3.6325e-017
Spine  18.5037 0.0721482 -2.68805
Spine1  11.2948 -0.4712 0.217553
HEad  8.33631 -1.00241 -3.17231
LeftShoulder1  8.12369 -12.6044 -43.8972
LeftArm  -8.73214 8.8022 -32.721
LeftForeArm  34.6692 -17.2733 -3.88359
LeftHand  -0.244104 0.0205437 5.32207
RightShoulder  5.19598 8.69684 36.5923
RightArm  11.1209 -13.5781 40.4246
RightForeArm  -1.84905 19.8552 5.74388
RightHand  -3.01462 8.96958 -24.3449
LeftUpLeg  -5.71109 11.7893 -8.01338
LeftLeg  17.8305 6.2594 0.977913
LeftFoot  -10.813 0.0538816 2.58989
LeftToes  -5.82109e-011 -4.83791e-012 -1.00937e-011
230
root  -49.3955 40.3286 -1.99938 133.977 83.3223 135.66
RightUpLeg  -25.2319 -6.18813 -6.08902
RightLeg  51.7488 -2.69584 -4.01344
RightFoot  2.88467 -0.569025 4.71083
RightToes  -4.65663e-010 0 -3.6325e-017
Spine  19.9742 -0.190181 -3.28526
Spine1  10.8979 -1.3089 1.60954
HEad  6.86743 -0.187669 -3.12629
LeftShoulder1  8.09949 -12.5715 -43.8535
LeftArm  -7.83353 8.44198 -33.4231
LeftForeArm  34.3081 -19.3324 -3.52164
LeftHand  -0.244104 0.0205437 5.32207
RightShoulder  5.36778 9.19939 36.268
RightArm  13.1229 -16.5664 40.5657
RightForeArm  -3.93642 21.715 5.33417
RightHand  -2.84049 8.34653 -23.9882
LeftUpLeg  -3.29206 9.41654 -6.78794
LeftLeg  16.2804 8.33082 0.0499787
LeftFoot  -11.5706 0.0747613 2.55816
LeftToes  -5.82109e-011 -4.83791e-012 -1.00937e-011
